<svg id="Layer_1" data-name="Layer 1" xmlns="http://www.w3.org/2000/svg" viewBox="0 0 1984 400"><defs><style>.cls-1{fill:#076054;}</style></defs><title>tasktracker-logo-hor-green-full</title><path class="cls-1" d="M168.2,65.5C76.6,65.5,2,140.1,2,231.7S76.6,398,168.2,398s166.2-74.6,166.2-166.3S259.9,65.5,168.2,65.5Zm0,298.8A132.7,132.7,0,0,1,35.6,231.7c0-73.1,59.5-132.6,132.6-132.6s132.6,59.5,132.6,132.6A132.7,132.7,0,0,1,168.2,364.3Z"/><rect class="cls-1" x="160.7" y="112.2" width="14.9" height="16.81"/><rect class="cls-1" x="105.2" y="127.1" width="14.9" height="16.81" transform="translate(-52.7 74.5) rotate(-30)"/><rect class="cls-1" x="64.5" y="167.8" width="14.9" height="16.81" transform="matrix(0.5, -0.87, 0.87, 0.5, -116.59, 150.43)"/><rect class="cls-1" x="48.7" y="224.3" width="16.8" height="14.94"/><rect class="cls-1" x="63.6" y="279.8" width="16.8" height="14.94" transform="translate(-134 74.5) rotate(-30)"/><rect class="cls-1" x="104.3" y="320.5" width="16.8" height="14.94" transform="translate(-227.7 261.6) rotate(-60)"/><rect class="cls-1" x="160.7" y="334.5" width="14.9" height="16.81"/><rect class="cls-1" x="216.3" y="319.6" width="14.9" height="16.81" transform="translate(-134 155.8) rotate(-30)"/><rect class="cls-1" x="257" y="278.9" width="14.9" height="16.81" transform="translate(-116.6 372.7) rotate(-60)"/><rect class="cls-1" x="270.9" y="224.3" width="16.8" height="14.94"/><rect class="cls-1" x="256" y="168.7" width="16.8" height="14.94" transform="translate(-52.7 155.8) rotate(-30)"/><rect class="cls-1" x="215.4" y="128" width="16.8" height="14.94" transform="translate(-5.5 261.6) rotate(-60)"/><path class="cls-1" d="M168.2,148.6c-5.7,0-10.3,89.6-10.3,95.3a10.3,10.3,0,0,0,20.6,0C178.5,238.2,173.9,148.6,168.2,148.6Z"/><path class="cls-1" d="M148.6,37.5h1.9V53.4c6.1-.6,12.3-.9,18.7-.9a157.4,157.4,0,0,1,16.8.8V37.5h1.8a17.8,17.8,0,1,0,0-35.5H148.6a17.8,17.8,0,0,0,0,35.5Z"/><path class="cls-1" d="M472.7,155.7H432.3v36.4h-17v34.5h17v67.5c0,8.4,1,15.2,3.1,20.6a33.1,33.1,0,0,0,8.5,13.2,29.8,29.8,0,0,0,13,7,66.7,66.7,0,0,0,16.8,2,63,63,0,0,0,17.8-2.3,64.2,64.2,0,0,0,14.1-5.9V296.3a39.8,39.8,0,0,1-19.9,5.3c-8.7,0-13-4.7-13-13.9V226.6h33.5V192.1H472.7Z"/><path class="cls-1" d="M643,206.2a51.5,51.5,0,0,0-19.5-11.8c-7.9-2.8-17.4-4.2-28.6-4.2s-22.3,1.1-30.8,3.2a164.1,164.1,0,0,0-24.5,8.3l10.1,30.8a132.1,132.1,0,0,1,18.8-5.7,90.1,90.1,0,0,1,20.5-2c10.1,0,17.8,2.2,22.9,6.6s7.7,10.9,7.7,19.4v2.4a104.9,104.9,0,0,0-15.8-4.2,96.3,96.3,0,0,0-19-1.6,89.1,89.1,0,0,0-23.3,2.8,51.5,51.5,0,0,0-18,8.3,37.5,37.5,0,0,0-11.8,14.1c-2.9,5.7-4.3,12.4-4.3,20.2v.5a43,43,0,0,0,3.9,18.8,38,38,0,0,0,10.5,13.6,42.3,42.3,0,0,0,15.5,8.4,61.9,61.9,0,0,0,19,2.8c9.9,0,18.3-1.6,25.2-4.9a55.9,55.9,0,0,0,17.8-13.2v15.4h39.1V251.6a87.1,87.1,0,0,0-3.7-25.9A48.1,48.1,0,0,0,643,206.2ZM620.1,284a21.9,21.9,0,0,1-8.6,18.1c-5.8,4.6-13.4,6.9-23,6.9-6.5,0-11.9-1.5-15.9-4.5s-6.1-7.3-6.1-12.8v-.5c0-6.4,2.4-11.2,7.4-14.6s11.8-5.1,20.5-5.1a61.7,61.7,0,0,1,13.9,1.5,62.8,62.8,0,0,1,11.8,3.9Z"/><path class="cls-1" d="M783.5,262a62.6,62.6,0,0,0-13.8-8.1c-5.1-2.2-10.2-4.1-15.1-5.7s-7.6-2.5-11.1-3.8a80.8,80.8,0,0,1-9.1-3.8,25.4,25.4,0,0,1-6.4-4.3,6.8,6.8,0,0,1-2.4-5.1v-.6a8.3,8.3,0,0,1,3.7-7c2.5-1.9,6.2-2.8,11.2-2.8a54,54,0,0,1,17.8,3.6,127.3,127.3,0,0,1,20.7,9.7l15.4-27.9a102.1,102.1,0,0,0-25.6-12.1,92.3,92.3,0,0,0-27.5-4.4,69.1,69.1,0,0,0-20.3,2.9,48.4,48.4,0,0,0-16.5,8.8,43.3,43.3,0,0,0-11.2,14.2,43.8,43.8,0,0,0-4.1,19.3v.5c0,6.9,1.3,12.8,3.9,17.5A36.6,36.6,0,0,0,703,265a53.5,53.5,0,0,0,13.7,8c5.1,2,10.1,3.8,15,5.2l11.2,3.4a90.8,90.8,0,0,1,9.4,3.4,19.6,19.6,0,0,1,6.5,4.1,7.6,7.6,0,0,1,2.4,5.6v.5a9.2,9.2,0,0,1-4.1,7.7c-2.8,1.9-7.1,2.9-12.9,2.9a64.4,64.4,0,0,1-21.7-4.2,97.7,97.7,0,0,1-23.2-12.8L682,315.4a99,99,0,0,0,30.2,16.3,97.3,97.3,0,0,0,30.9,5.2,76.9,76.9,0,0,0,21.4-2.8,48.6,48.6,0,0,0,17.4-8.4,37.5,37.5,0,0,0,11.6-14.2c2.7-5.7,4.1-12.6,4.1-20.6v-.5c0-6.5-1.3-12.1-4-16.7A39.2,39.2,0,0,0,783.5,262Z"/><polygon class="cls-1" points="962.6 194.5 914.2 194.5 866.9 246.3 866.9 143 826.6 143 826.6 336.9 866.9 336.9 866.9 293.6 881 278.7 918.2 336.9 964.5 336.9 908.4 250.6 962.6 194.5"/><polygon class="cls-1" points="974.8 188.7 1031.4 188.7 1031.4 336.9 1072.3 336.9 1072.3 188.7 1128.9 188.7 1128.9 150.9 974.8 150.9 974.8 188.7"/><path class="cls-1" d="M1213.1,199.8c-7.1,5.9-12.6,13.7-16.7,23.4V194.5H1156V336.9h40.4V284.3c0-17.2,3.8-29.8,11.5-38s18.3-12.2,31.8-12.2h2.1V191.8C1229.8,191.3,1220.2,194,1213.1,199.8Z"/><path class="cls-1" d="M1374.1,206.2a50,50,0,0,0-19.5-11.8c-7.9-2.8-17.4-4.2-28.6-4.2s-22.3,1.1-30.8,3.2a162.9,162.9,0,0,0-24.4,8.3l10.1,30.8a131,131,0,0,1,18.7-5.7,90.5,90.5,0,0,1,20.6-2q15.1,0,22.8,6.6c5.2,4.5,7.7,10.9,7.7,19.4v2.4a104.9,104.9,0,0,0-15.8-4.2,96.3,96.3,0,0,0-19-1.6,88.3,88.3,0,0,0-23.2,2.8,52.9,52.9,0,0,0-18.1,8.3,38.5,38.5,0,0,0-11.8,14.1c-2.8,5.7-4.2,12.4-4.2,20.2v.5c0,7.1,1.2,13.4,3.8,18.8a40.4,40.4,0,0,0,10.5,13.6,42.3,42.3,0,0,0,15.5,8.4,62.4,62.4,0,0,0,19,2.8c10,0,18.4-1.6,25.3-4.9a57,57,0,0,0,17.8-13.2v15.4h39V251.6a84,84,0,0,0-3.7-25.9A48.1,48.1,0,0,0,1374.1,206.2ZM1351.3,284a21.9,21.9,0,0,1-8.7,18.1c-5.7,4.6-13.4,6.9-22.9,6.9-6.6,0-11.9-1.5-16-4.5s-6.1-7.3-6.1-12.8v-.5c0-6.4,2.5-11.2,7.5-14.6s11.7-5.1,20.4-5.1a62.6,62.6,0,0,1,14,1.5,65.3,65.3,0,0,1,11.8,3.9Z"/><path class="cls-1" d="M1511.1,298a37.3,37.3,0,0,1-17.7,4.1,34.8,34.8,0,0,1-26.3-11.4,37.1,37.1,0,0,1-7.3-12.5,45.6,45.6,0,0,1-2.5-15.4v-.6a43.7,43.7,0,0,1,2.5-15,37.6,37.6,0,0,1,7.2-12.3,34.3,34.3,0,0,1,10.9-8.4,31.5,31.5,0,0,1,13.9-3c7.3,0,13.3,1.4,18.2,4.2a66.4,66.4,0,0,1,14.2,11.4l24.7-26.5a75.1,75.1,0,0,0-23.3-17.6c-8.9-4.2-20.1-6.3-33.5-6.3a76.3,76.3,0,0,0-30.2,5.8,72.8,72.8,0,0,0-23.5,15.9,75.7,75.7,0,0,0-15.4,23.7,74.9,74.9,0,0,0-5.6,28.7v.5a73,73,0,0,0,74.2,73.6c14.1,0,25.6-2.4,34.5-7.3a92.3,92.3,0,0,0,23.6-18.7L1526.1,287A79.6,79.6,0,0,1,1511.1,298Z"/><polygon class="cls-1" points="1712.1 194.5 1663.7 194.5 1616.4 246.3 1616.4 143 1576 143 1576 336.9 1616.4 336.9 1616.4 293.6 1630.5 278.7 1667.7 336.9 1713.9 336.9 1657.9 250.6 1712.1 194.5"/><path class="cls-1" d="M1849.3,212.2a63.5,63.5,0,0,0-21.7-17.2c-8.6-4.2-18.9-6.3-30.8-6.3a67.5,67.5,0,0,0-50.7,21.7,75.2,75.2,0,0,0-14.5,23.7,78.6,78.6,0,0,0-5.2,28.7v.5a77.3,77.3,0,0,0,5.6,29.9,68.6,68.6,0,0,0,39.2,38.4,81.9,81.9,0,0,0,29.6,5.3c12.9,0,24.2-2.3,33.8-7a71.3,71.3,0,0,0,24.4-19.6l-23.1-20.4a62.9,62.9,0,0,1-16.5,11.1,44.9,44.9,0,0,1-18.1,3.5c-9,0-16.6-2.4-22.7-7s-10.1-11.7-12.1-20.9h99.1c.2-2,.3-3.8.4-5.6s.2-3.4.2-5a100.4,100.4,0,0,0-4.2-29.1A70.7,70.7,0,0,0,1849.3,212.2ZM1766,251.4c1.6-9.3,5-16.6,10.2-22.1s12.1-8.2,20.6-8.2,15.3,2.8,20.5,8.3,8.3,12.9,9.5,22Z"/><path class="cls-1" d="M1953.3,199.8a59.1,59.1,0,0,0-16.7,23.4V194.5h-40.4V336.9h40.4V284.3c0-17.2,3.8-29.8,11.5-38s18.3-12.2,31.8-12.2h2.1V191.8C1970,191.3,1960.4,194,1953.3,199.8Z"/></svg>